<?xml version="1.0" encoding="UTF-8"?>
<svg version="1.1" xmlns="http://www.w3.org/2000/svg" width="23" height="28">
<path d="M0 0 C4.875 0.875 4.875 0.875 6 2 C8.06772734 2.19941868 8.06772734 2.19941868 10.4375 2.1875 C11.24058594 2.20167969 12.04367187 2.21585937 12.87109375 2.23046875 C15.21630633 2.20162356 15.21630633 2.20162356 17 0 C18.32 0 19.64 0 21 0 C22.19960669 3.59882006 22.16886729 6.58137982 22.1875 10.375 C22.20167969 11.68210937 22.21585938 12.98921875 22.23046875 14.3359375 C21.95521834 18.71195255 21.52741716 21.63127554 18.1953125 24.6171875 C17.51210938 25.03226563 16.82890625 25.44734375 16.125 25.875 C15.44695313 26.30554688 14.76890625 26.73609375 14.0703125 27.1796875 C11.50850282 28.19474416 10.54382175 27.98678466 8 27 C5.89453125 25.94921875 5.89453125 25.94921875 3.8125 24.6875 C3.11769531 24.27886719 2.42289062 23.87023437 1.70703125 23.44921875 C-0.45574921 21.61308248 -0.67163966 20.80771882 -1 18 C-1.09382329 15.48056872 -1.12992898 12.95867284 -1.125 10.4375 C-1.12886719 9.76525391 -1.13273438 9.09300781 -1.13671875 8.40039062 C-1.13061073 5.32500248 -0.97991229 2.93973687 0 0 Z " fill="#090900" transform="translate(1,0)"/>
<path d="M0 0 C4.75 0.875 4.75 0.875 7 2 C11.34716441 2.24150913 14.21977057 2.1601311 18 0 C18.99 0 19.98 0 21 0 C19.91790362 3.13807951 19.05268214 3.96907788 16.125 5.6875 C15.09375 6.120625 14.0625 6.55375 13 7 C12.319375 7.28875 11.63875 7.5775 10.9375 7.875 C7.95612746 8.06734662 6.39953769 6.67967638 4 5 C3.236875 4.484375 2.47375 3.96875 1.6875 3.4375 C1.130625 2.963125 0.57375 2.48875 0 2 C0 1.34 0 0.68 0 0 Z " fill="#994000" transform="translate(1,20)"/>
<path d="M0 0 C4.08378283 0.74250597 8.01939223 1.82923301 12 3 C11.01 3.33 10.02 3.66 9 4 C9 4.66 9 5.32 9 6 C2.35384615 4.52307692 2.35384615 4.52307692 0.5625 1.875 C0.376875 1.25625 0.19125 0.6375 0 0 Z " fill="#A22700" transform="translate(1,20)"/>
</svg>
